<svg height="512pt" viewBox="-1 0 512 512" width="512pt" xmlns="http://www.w3.org/2000/svg"><g fill="#d62241"><path d="m6.652344 411.042969c-1.914063 10.304687-4.652344 25.203125-6.414063 34.824219-1.148437 6.277343 1.910157 12.5625 7.5625 15.527343 7.78125 4.082031 20.25 8.703125 36.664063 8.558594 7.046875-.0625 13.027344-5.203125 14.199218-12.152344l5.4375-32.203125"/><path d="m502.941406 411.042969c1.914063 10.304687 4.648438 25.203125 6.410156 34.824219 1.152344 6.277343-1.910156 12.5625-7.558593 15.527343-7.78125 4.082031-20.25 8.703125-36.667969 8.558594-7.042969-.0625-13.023438-5.203125-14.195312-12.152344l-5.4375-32.203125"/><path d="m280.6875 433.449219v78.550781c51.851562-4.65625 90.558594-23.023438 90.558594-44.980469v-5.921875"/><path d="m138.335938 461.097656v5.921875c0 21.957031 38.707031 40.324219 90.570312 44.980469v-78.550781"/></g><path d="m181.167969 89.035156c11.914062 23.871094 47.738281 35.785156 47.738281 35.785156v360.410157c-41.382812-2.738281-67.933594-11.777344-83.65625-19.582031-11.746094-5.828126-19.109375-17.867188-19.109375-30.972657v-200.898437l-48.746094 176.1875c-3.148437 11.394531-14.03125 18.871094-25.796875 17.761718-10.628906-1.003906-21.894531-2.925781-32.410156-6.652343-10.730469-3.804688-17.4375-14.507813-16.128906-25.828125 16.265625-139.898438 64.386718-251.390625 64.386718-251.390625 22.1875-22.1875 52.113282-38.316407 71.800782-47.40625" fill="#fb6572"/><path d="m370.34375 96.449219c19.6875 9.089843 49.617188 25.21875 71.804688 47.40625 0 0 48.117187 111.492187 64.386718 251.390625 1.304688 11.320312-5.398437 22.023437-16.132812 25.828125-10.511719 3.726562-21.777344 5.648437-32.40625 6.652343-11.769532 1.109376-22.648438-6.367187-25.796875-17.761718l-48.746094-176.1875v200.898437c0 13.105469-7.363281 25.144531-19.113281 30.972657-15.722656 7.804687-42.269532 16.84375-83.652344 19.582031v-360.410157s35.820312-11.914062 47.738281-35.785156" fill="#fb6572"/><path d="m198.96875 87.839844-10.054688 20.042968c-48.640624 14.84375-119.535156 44.488282-154.976562 249.988282-6.128906 28.632812-14.035156 53.789062-.710938 67.117187-4.738281-1.015625-9.457031-2.292969-14.039062-3.914062-10.730469-3.804688-17.4375-14.507813-16.128906-25.828125 16.265625-139.898438 64.386718-251.390625 64.386718-251.390625 35.972657-35.972657 92.316407-56.015625 92.316407-56.015625zm0 0" fill="#ea394e"/><path d="m490.402344 421.074219c-10.511719 3.726562-21.777344 5.648437-32.40625 6.652343-11.769532 1.109376-22.648438-6.367187-25.796875-17.761718l-48.746094-176.1875c0-19.625 4.132813-37.15625 13.535156-52.261719l56.144531 215.207031s9.097657 24.351563 37.269532 24.351563zm0 0" fill="#ea394e"/><path d="m159.699219 227.007812v244.8125c-5.585938-2.050781-10.378907-4.152343-14.449219-6.171874-11.746094-5.828126-19.109375-17.867188-19.109375-30.972657v-200.898437c0-16.738282-3.011719-31.957032-9.730469-45.453125 0 0 43.289063 1.871093 43.289063 38.683593zm0 0" fill="#ea394e"/><path d="m228.90625 164.484375c-40.847656-9.132813-74.324219-38.558594-89.660156-68.035156-5.835938-11.214844-9.046875-22.429688-9.046875-32.542969 0-42.128906 55.785156-63.90625 124.597656-63.90625 68.800781 0 124.585937 21.777344 124.585937 63.90625 0 10.101562-3.210937 21.316406-9.046874 32.53125-15.335938 29.476562-48.800782 58.902344-89.648438 68.046875" fill="#4695bc"/><path d="m328.429688 89.03125c-8.769532 17.554688-30.460938 28.644531-41.328126 33.28125-3.890624 1.664062-6.414062 5.476562-6.414062 9.707031v332.625c-8.054688 3.398438-16.78125 5.25-25.902344 5.25-9.109375 0-17.835937-1.851562-25.878906-5.28125v-332.59375c0-4.230469-2.527344-8.042969-6.417969-9.703125-10.863281-4.640625-32.554687-15.730468-41.324219-33.285156 42.203126-36.746094 105.042969-36.75 147.25-.007812zm0 0" fill="#0e708e"/><path d="m354.402344 438.363281c-2.007813 0-4.015625-.765625-5.546875-2.296875-28.738281-28.738281-26.917969-66.757812-26.824219-68.363281.246094-4.324219 3.960938-7.636719 8.28125-7.382813 4.316406.246094 7.621094 3.941407 7.386719 8.257813-.023438.449219-1.347657 32.792969 22.25 56.394531 3.0625 3.0625 3.0625 8.03125 0 11.09375-1.53125 1.53125-3.539063 2.296875-5.546875 2.296875zm0 0" fill="#d62241"/><path d="m155.179688 438.363281c-2.007813 0-4.015626-.765625-5.546876-2.296875-3.0625-3.0625-3.0625-8.03125 0-11.09375 23.644532-23.644531 22.269532-56.070312 22.25-56.394531-.21875-4.320313 3.09375-8.015625 7.410157-8.25 4.300781-.226563 8.011719 3.058594 8.257812 7.375.089844 1.605469 1.914063 39.625-26.824219 68.363281-1.53125 1.53125-3.539062 2.296875-5.546874 2.296875zm0 0" fill="#d62241"/><path d="m310.714844 239.792969c-4.332032 0-7.84375-3.515625-7.84375-7.847657v-91.335937c0-4.332031 3.511718-7.84375 7.84375-7.84375 4.332031 0 7.847656 3.511719 7.847656 7.84375v91.335937c0 4.332032-3.515625 7.847657-7.847656 7.847657zm0 0" fill="#cce6f6"/><path d="m198.867188 239.792969c-4.335938 0-7.847657-3.515625-7.847657-7.847657v-91.335937c0-4.332031 3.511719-7.84375 7.847657-7.84375 4.332031 0 7.84375 3.511719 7.84375 7.84375v91.335937c0 4.332032-3.511719 7.847657-7.84375 7.847657zm0 0" fill="#cce6f6"/><path d="m446.441406 154.410156c-32.230468 17.3125-47.292968 42.710938-47.292968 79.367188 0 4.328125-3.515626 7.84375-7.847657 7.84375-2.867187 0-5.375-1.535156-6.734375-3.828125-.703125-1.171875-1.109375-2.550781-1.109375-4.015625 0-42.480469 18.136719-73.027344 55.410157-93.101563 1.117187 1.046875 2.207031 2.101563 3.285156 3.179688 0 0 1.589844 3.683593 4.289062 10.554687zm0 0" fill="#ea394e"/><path d="m78.851562 154.410156c32.226563 17.3125 47.292969 42.710938 47.292969 79.367188 0 4.328125 3.511719 7.84375 7.84375 7.84375 2.867188 0 5.378907-1.535156 6.738281-3.828125.699219-1.171875 1.109376-2.550781 1.109376-4.015625 0-42.480469-18.140626-73.027344-55.414063-93.101563-1.117187 1.046875-2.207031 2.101563-3.28125 3.179688 0 0-1.589844 3.683593-4.289063 10.554687zm0 0" fill="#ea394e"/><path d="m333.703125 57.589844c-20.691406-11.726563-48.433594-18.890625-78.925781-18.890625-30.472656 0-58.203125 7.15625-78.882813 18.871093 16.296875-20.160156 45.535157-33.570312 78.882813-33.570312 33.371094 0 62.609375 13.421875 78.925781 33.589844zm0 0" fill="#0e708e"/></svg>