<svg height="504pt" viewBox="-104 0 504 504" width="504pt" xmlns="http://www.w3.org/2000/svg"><path d="m224 0s-8 112-76 112-76-112-76-112 27.246094 64.007812 76 64.007812 76-64.007812 76-64.007812zm0 0" fill="#da4453"/><path d="m255.992188 0h-31.992188s-8 112-76 112-76-112-76-112h-31.992188c0 48 7.992188 136-40.007812 168v320c0 8.871094 7.121094 16 16 16h264c8.800781 0 16-7.128906 16-16v-320c-48-32-40.007812-120-40.007812-168zm0 0" fill="#ed5565"/><g fill="#da4453"><path d="m144 348c-41.902344 0-76-34.097656-76-76s34.097656-76 76-76 76 34.097656 76 76-34.097656 76-76 76zm0-144c-37.496094 0-68 30.503906-68 68s30.503906 68 68 68 68-30.503906 68-68-30.503906-68-68-68zm0 0"/><path d="m160 292c-1.023438 0-2.046875-.390625-2.832031-1.167969l-32-32c-1.558594-1.558593-1.558594-4.097656 0-5.65625 1.558593-1.558593 4.097656-1.558593 5.65625 0l32 32c1.558593 1.558594 1.558593 4.097657 0 5.65625-.777344.777344-1.800781 1.167969-2.824219 1.167969zm0 0"/><path d="m128 260c-1.023438 0-2.046875-.390625-2.832031-1.167969-1.558594-1.558593-1.558594-4.097656 0-5.65625l71.992187-71.992187c1.558594-1.558594 4.097656-1.558594 5.65625 0s1.558594 4.097656 0 5.65625l-71.992187 71.992187c-.777344.777344-1.800781 1.167969-2.824219 1.167969zm0 0"/><path d="m88 364c-1.023438 0-2.046875-.390625-2.832031-1.167969-1.558594-1.558593-1.558594-4.097656 0-5.65625l72-72c1.558593-1.558593 4.097656-1.558593 5.65625 0 1.558593 1.558594 1.558593 4.097657 0 5.65625l-72 72c-.777344.777344-1.800781 1.167969-2.824219 1.167969zm0 0"/></g><path d="m160 84.007812h-24c-2.207031 0-4-1.792968-4-4 0-2.207031 1.792969-4 4-4h24c2.207031 0 4 1.792969 4 4 0 2.207032-1.792969 4-4 4zm0 0" fill="#d3374e"/></svg>